<?xml version="1.0" encoding="utf-8"?>
<!-- Generator: Adobe Illustrator 23.0.6, SVG Export Plug-In . SVG Version: 6.00 Build 0)  -->
<svg version="1.1" id="레이어_1" xmlns="http://www.w3.org/2000/svg" xmlns:xlink="http://www.w3.org/1999/xlink" x="0px"
	 y="0px" viewBox="0 0 385.6 68.9" style="enable-background:new 0 0 385.6 68.9;" xml:space="preserve">
<style type="text/css">
	.st0{fill:#FFFFFF;}
</style>
<g id="Layer_2">
	<g id="Layer_1-2">
		<path class="st0" d="M21,47l6.9,7.6H0.1L7.1,47V14.6L0,9l21-7.3V47z M50.7,51.8c-2.5,2.6-6,4-9.6,3.9c-5.8,0-10-2.7-13.4-9.8
			l-5.2-10.8l12-9.9L26,18.1h20L34.2,28l7.6,12C44.6,44.4,47.5,48.8,50.7,51.8L50.7,51.8z"/>
		<path class="st0" d="M70.2,46.9l6.9,7.6H49.4l6.9-7.6V30.2l-7-5.5l21-7.3L70.2,46.9z M54.6,8.4c-0.1-4.5,3.5-8.3,8-8.4
			c0.1,0,0.2,0,0.3,0c4.6,0,8.4,3.8,8.4,8.4s-3.8,8.4-8.4,8.4c-4.6,0-8.3-3.7-8.4-8.3C54.6,8.4,54.6,8.4,54.6,8.4z"/>
		<path class="st0" d="M97.3,48.4l4.8,6.1H76.5l7-7.6V30.1l-7.1-5.6L97,17.4V27c1.4-5.7,6.5-9.6,12.4-9.6c5.9,0,11.5,4,11.5,11.7V47
			l6.9,7.6h-25.7l4.8-6.2V32.6c0-3.5-2.7-5.3-5.5-5.3c-1.5,0-2.9,0.5-4.1,1.3L97.3,48.4z"/>
		<path class="st0" d="M154,30.2l-9.5-11.1c-2.2,0.6-4.2,2-4.2,4.6c0,3.7,3.9,5.4,8.3,6.8c6,1.9,13.1,3.8,13.1,12.1
			c0,7.9-6.5,12.7-16.1,12.7c-6,0-13.2-1.9-17.1-5.3l7.3-8.2L146.4,54c2.7-0.2,4-2.8,4-5.2c0-3.2-2.3-4.9-6.9-6.5
			C137.3,40.2,129,37.4,129,29c0-7.4,6.2-11.5,16.1-11.5c5.6,0,11.8,1.4,16,4.5L154,30.2z"/>
		<path class="st0" d="M205,35.2c0,9.7-5.6,19.3-18.4,19.3c-1.6,0-3.2-0.2-4.7-0.7v7.5l8.4,7.6h-29.2l6.9-7.5V30.1l-7.1-5.6
			l20.6-7.1v7.7c1.4-5.4,5.3-7.7,9.8-7.7C200.2,17.4,205,26.3,205,35.2z M191.5,39.5c0-6.1-1.9-12.4-7.1-12.4
			c-0.8,0-1.6,0.1-2.4,0.4V47c0,3.6,1.5,5.3,3.5,5.3C189.4,52.3,191.4,45.9,191.5,39.5L191.5,39.5z"/>
		<path class="st0" d="M242.5,36.3c-1.4,12.1-7.6,19-17.1,19c-10.4,0-18.3-8.3-18.3-19.1c0-11.2,7.5-18.7,17.9-18.7
			c7.7,0,16.4,4.2,16.6,15.6h-23.6c0.7,5.4,4,10.3,11.6,10.3C234.9,43.3,239.7,40.7,242.5,36.3z M217.9,30.6h9.5
			c0.3-1.4,0.4-2.8,0.4-4.2c0-3.8-1.1-6.9-3.9-6.9C220.6,19.4,217.9,24.9,217.9,30.6z"/>
		<path class="st0" d="M283.4,36.3c0,11.5-7.9,19.1-19.4,19.1s-19.3-7.6-19.3-18.9s7.9-19.1,19.5-19.1S283.4,25.1,283.4,36.3z
			 M268.6,37.8c0-12.7-2.1-18.1-5-18.1c-2.5,0-4.1,4.1-4.1,15.3c0,12.7,2.1,18.1,5,18.1C266.9,53.1,268.6,49,268.6,37.8z"/>
		<path class="st0" d="M327.4,35.2c0,9.7-5.5,19.3-18.4,19.3c-1.6,0-3.2-0.2-4.7-0.7v7.5l8.4,7.6h-29.2l6.9-7.5V30.1l-7.1-5.6
			l20.6-7.1v7.7c1.4-5.4,5.3-7.7,9.8-7.7C322.6,17.4,327.4,26.3,327.4,35.2z M313.9,39.5c0-6.1-1.9-12.4-7.1-12.4
			c-0.8,0-1.6,0.1-2.4,0.4V47c0,3.6,1.5,5.3,3.5,5.3C311.8,52.3,313.9,45.9,313.9,39.5z"/>
		<path class="st0" d="M345.8,47l6.9,7.6H325l6.9-7.6V14.6L324.9,9l21-7.3V47z"/>
		<path class="st0" d="M385.6,36.3c-1.4,12.1-7.6,19-17.1,19c-10.4,0-18.3-8.3-18.3-19.2c0-11.2,7.5-18.7,17.9-18.7
			c7.7,0,16.4,4.2,16.6,15.6h-23.6c0.7,5.4,4,10.3,11.6,10.3C377.9,43.3,382.8,40.7,385.6,36.3z M361,30.6h9.5
			c0.3-1.4,0.4-2.8,0.4-4.2c0-3.8-1.1-6.9-3.9-6.9C363.7,19.4,361,24.9,361,30.6z"/>
	</g>
</g>
</svg>
