<?xml version="1.0" encoding="utf-8"?>
<!-- Generator: Adobe Illustrator 23.0.6, SVG Export Plug-In . SVG Version: 6.00 Build 0)  -->
<svg version="1.1" id="레이어_1" xmlns="http://www.w3.org/2000/svg" xmlns:xlink="http://www.w3.org/1999/xlink" x="0px"
	 y="0px" viewBox="0 0 114 114" style="enable-background:new 0 0 114 114;" xml:space="preserve">
<style type="text/css">
	.st0{fill:#FFFFFF;}
</style>
<circle cx="57" cy="54.9" r="47"/>
<g id="Layer_2">
	<g id="Layer_1-2">
		<path class="st0" d="M57,0C25.5,0,0,25.5,0,57s25.5,57,57,57s57-25.5,57-57S88.5,0,57,0z M69,27.3c4.2,0,7.7,3.4,7.7,7.6
			c0,4.2-3.4,7.7-7.6,7.7s-7.7-3.4-7.7-7.6c0,0,0,0,0,0c-0.1-4.1,3.2-7.6,7.3-7.7C68.8,27.3,68.9,27.3,69,27.3z M29.8,84.8l7.4-8.2
			V41.8l-7.6-6l22.6-7.8v48.8l7.5,8.2H29.8z M74,86.1c-6.2,0-10.8-2.9-14.4-10.6L54,63.9l13-10.7l-9.3-7.6h21.6L66.6,56.3l8.2,13
			c3,4.7,6,9.5,9.5,12.7C81.6,84.7,77.9,86.2,74,86.1z"/>
	</g>
</g>
</svg>
