<?xml version="1.0" encoding="utf-8"?>
<!-- Generator: Adobe Illustrator 23.0.6, SVG Export Plug-In . SVG Version: 6.00 Build 0)  -->
<svg version="1.1" id="레이어_1" xmlns="http://www.w3.org/2000/svg" xmlns:xlink="http://www.w3.org/1999/xlink" x="0px"
	 y="0px" viewBox="0 0 633.7 170.1" style="enable-background:new 0 0 633.7 170.1;" xml:space="preserve">
<style type="text/css">
	.st0{fill:#FFFFFF;}
</style>
<g id="Layer_2">
	<g id="Layer_1-2">
		<path class="st0" d="M34.4,77.2l11.4,12.4H0.2l11.4-12.4V23.9L0,14.8L34.4,2.8V77.2z M83.3,85.1c-3.8,3.9-8.8,6.4-15.7,6.4
			c-9.5,0-16.5-4.5-22-16.1L37,57.6l19.8-16.3L42.7,29.7h32.9L56.2,46l12.6,19.8C73.4,73,78,80.2,83.3,85.1z"/>
		<path class="st0" d="M115.4,77l11.4,12.4H81.2L92.5,77V49.7l-11.6-9.1l34.4-12V77z M89.7,13.7C89.5,6.3,95.4,0.2,102.9,0
			c0.2,0,0.4,0,0.6,0c7.6,0.2,13.6,6.5,13.4,14.2c-0.2,7.3-6.1,13.2-13.4,13.4c-7.6,0-13.7-6.1-13.7-13.6
			C89.7,13.9,89.7,13.8,89.7,13.7z"/>
		<path class="st0" d="M160,79.5l7.9,10.1h-42.3l11.5-12.4V49.5l-11.6-9.1l33.8-11.7v15.7c2.3-9.3,10.8-15.8,20.4-15.7
			c9.7,0,18.9,6.6,18.9,19.3v29.2L210,89.6h-42.1l7.9-10.1V53.6c0-5.8-4.4-8.6-9.1-8.6c-2.4,0-4.8,0.7-6.7,2.1V79.5z"/>
		<path class="st0" d="M253.1,49.6l-15.6-18.2c-3.7,1-6.9,3.3-6.9,7.6c0,6.2,6.4,8.9,13.6,11.1c9.8,3.1,21.5,6.3,21.5,19.9
			c0,13-10.6,21-26.5,21c-9.9,0-21.6-3.1-28-8.6l11.9-13.5l17.4,20c4.4-0.4,6.5-4.6,6.5-8.5c0-5.3-3.8-8-11.4-10.7
			c-10.1-3.4-23.7-8-23.7-22c0-12.1,10.2-18.9,26.4-18.9c9.2,0,19.4,2.2,26.3,7.5L253.1,49.6z"/>
		<path class="st0" d="M336.9,57.9c0,15.9-9.1,31.7-30.2,31.7c-2.6,0-5.2-0.3-7.7-1.1v12.3l13.7,12.4h-47.9l11.4-12.3V49.5
			l-11.6-9.1l33.9-11.7v12.7c2.4-8.9,8.8-12.7,16.1-12.7C329.1,28.6,336.9,43.2,336.9,57.9z M314.6,65c0-10.1-3.1-20.4-11.7-20.4
			c-1.3,0-2.6,0.2-3.9,0.6v31.9c0,5.9,2.5,8.8,5.8,8.8C311.2,85.9,314.6,75.5,314.6,65z"/>
		<path class="st0" d="M398.5,59.6c-2.2,19.9-12.4,31.2-28,31.2c-17.2,0-30.1-13.7-30.1-31.5c0-18.4,12.3-30.8,29.5-30.8
			c12.7,0,27,7,27.3,25.6h-38.8c1.2,8.9,6.6,16.9,19,16.9C385.8,71.1,393.3,67.3,398.5,59.6z M358.2,50.3h15.6
			c0.5-2.3,0.7-4.6,0.7-7c0-6.3-1.9-11.4-6.4-11.4C362.6,32,358.2,41,358.2,50.3z"/>
		<path class="st0" d="M465.8,59.6c0,18.8-13,31.4-32,31.4s-31.7-12.5-31.7-31c0-18.7,13-31.4,32.1-31.4S465.8,41.2,465.8,59.6z
			 M441.4,62.1c0-20.8-3.4-29.8-8.2-29.8c-4,0-6.7,6.7-6.7,25.2c0,20.8,3.4,29.8,8.2,29.8C438.6,87.3,441.4,80.6,441.4,62.1z"/>
		<path class="st0" d="M538,57.9c0,15.9-9.1,31.7-30.2,31.7c-2.6,0-5.2-0.3-7.7-1.1v12.3l13.7,12.4H466l11.4-12.3V49.5l-11.6-9.1
			l33.9-11.7v12.7c2.4-8.9,8.8-12.7,16.1-12.7C530.2,28.6,538,43.2,538,57.9z M515.8,65c0-10.1-3.1-20.4-11.7-20.4
			c-1.3,0-2.6,0.2-3.9,0.6v31.9c0,5.9,2.5,8.8,5.8,8.8C512.4,85.9,515.8,75.5,515.8,65z"/>
		<path class="st0" d="M568.3,77.2l11.4,12.4h-45.6l11.4-12.4V23.9l-11.6-9.1l34.4-11.9V77.2z"/>
		<path class="st0" d="M633.7,59.6c-2.2,19.9-12.4,31.2-28,31.2c-17.2,0-30.1-13.7-30.1-31.5c0-18.4,12.3-30.8,29.5-30.8
			c12.7,0,27,7,27.3,25.6h-38.9c1.2,8.9,6.6,16.9,19,16.9C620.9,71.1,628.5,67.3,633.7,59.6z M593.3,50.3h15.6
			c0.5-2.3,0.7-4.6,0.7-7c0-6.3-1.9-11.4-6.4-11.4C597.7,32,593.3,41,593.3,50.3z"/>
		<path class="st0" d="M24.4,115.2h2.2v18.6h0.1c0.4-1.2,1.1-2.2,1.9-3.2c0.8-0.9,1.7-1.7,2.8-2.3c1.1-0.6,2.2-1.1,3.4-1.4
			c1.2-0.3,2.5-0.5,3.8-0.4c2-0.1,4.1,0.4,5.9,1.2c1.6,0.8,3.1,1.9,4.2,3.3c1.2,1.5,2,3.1,2.5,4.9c1.3,4.9,1,10.1-0.7,14.9
			c-0.8,2-2,3.7-3.6,5.1c-1.3,1.1-2.8,1.9-4.4,2.4c-1.3,0.3-2.6,0.5-3.9,0.6c-1.8,0-3.6-0.3-5.2-1c-1.3-0.6-2.5-1.3-3.5-2.2
			c-0.8-0.7-1.5-1.6-2.1-2.6c-0.4-0.6-0.7-1.2-0.9-1.9h-0.1v6.9h-2.2V115.2z M38.6,157c1.8,0.1,3.6-0.4,5.2-1.3
			c1.4-0.9,2.6-2.1,3.5-3.5c0.9-1.5,1.6-3.1,1.9-4.8c0.4-1.7,0.6-3.5,0.6-5.3c0-1.7-0.2-3.4-0.7-5c-0.4-1.6-1.2-3-2.1-4.3
			c-0.9-1.2-2.1-2.3-3.5-3c-1.5-0.8-3.2-1.2-4.9-1.1c-1.8,0-3.6,0.3-5.3,1c-1.4,0.6-2.7,1.6-3.7,2.8c-1,1.3-1.7,2.7-2.2,4.3
			c-0.5,1.7-0.7,3.5-0.7,5.4c0,1.9,0.2,3.7,0.7,5.5c0.4,1.7,1.1,3.3,2.1,4.8c0.9,1.4,2.2,2.5,3.6,3.4
			C34.8,156.6,36.7,157.1,38.6,157z"/>
		<path class="st0" d="M80.7,158.2h-2.3v-6.6h-0.1c-0.4,1.1-1,2.2-1.7,3.1c-0.7,0.9-1.6,1.7-2.6,2.3c-1,0.6-2.1,1.1-3.2,1.4
			c-1.2,0.3-2.4,0.5-3.6,0.5c-1.6,0-3.1-0.2-4.6-0.7c-1.1-0.4-2.2-1-3.1-1.8c-0.8-0.7-1.4-1.5-1.9-2.4c-0.5-0.9-0.8-1.8-1-2.7
			c-0.2-0.9-0.3-1.8-0.4-2.7c0-0.9-0.1-1.6-0.1-2.3v-19.1h2.3v19.6c0,1,0.1,2,0.2,2.9c0.1,1.2,0.5,2.3,1,3.3
			c0.6,1.1,1.5,2.1,2.6,2.7c1.5,0.8,3.2,1.3,4.9,1.2c1.6,0,3.2-0.3,4.7-1c1.4-0.6,2.6-1.5,3.5-2.7c1-1.2,1.7-2.6,2.2-4.1
			c0.5-1.7,0.8-3.4,0.8-5.2v-16.7h2.3V158.2z"/>
		<path class="st0" d="M86.8,121.4v-6.2h2.3v6.2H86.8z M86.8,158.2v-31h2.3v31H86.8z"/>
		<path class="st0" d="M98,115.2v43h-2.3v-43L98,115.2z"/>
		<path class="st0" d="M128,151.6h-0.1c-1.1,2.2-2.8,4.1-4.8,5.5c-4,2.3-8.9,2.4-13.1,0.5c-1.6-0.8-3.1-2.1-4.2-3.6
			c-1.1-1.6-1.9-3.3-2.4-5.1c-1.1-4.1-1-8.4,0.1-12.5c0.5-1.9,1.4-3.6,2.6-5.1c1.2-1.5,2.6-2.6,4.3-3.4c1.9-0.9,4-1.3,6.1-1.3
			c1.2,0,2.5,0.2,3.7,0.5c1.2,0.3,2.3,0.8,3.3,1.5c2.1,1.3,3.7,3.3,4.4,5.7h0.1v-19h2.3v43H128V151.6z M116.5,157
			c1.8,0,3.5-0.4,5.1-1.2c1.4-0.8,2.6-1.9,3.6-3.2c1-1.4,1.7-2.9,2.1-4.5c0.5-1.7,0.7-3.5,0.7-5.2c0-1.8-0.2-3.6-0.7-5.3
			c-0.4-1.6-1.1-3.2-2.1-4.6c-0.9-1.3-2.1-2.4-3.6-3.2c-1.6-0.8-3.4-1.2-5.2-1.2c-1.8-0.1-3.6,0.4-5.2,1.2c-1.4,0.8-2.6,1.8-3.6,3.2
			c-0.9,1.4-1.6,2.9-2,4.6c-0.4,1.8-0.6,3.6-0.6,5.4c0,1.8,0.2,3.6,0.7,5.3c0.4,1.6,1.1,3.2,2.1,4.5c0.9,1.3,2.2,2.4,3.6,3.2
			C112.9,156.6,114.7,157,116.5,157z"/>
		<path class="st0" d="M136.9,121.4v-6.2h2.3v6.2H136.9z M136.9,158.2v-31h2.3v31H136.9z"/>
		<path class="st0" d="M145.3,127.3h2.3v6.6h0.1c0.4-1.1,1-2.2,1.7-3.1c0.7-0.9,1.6-1.7,2.6-2.3c1-0.7,2.1-1.1,3.2-1.4
			c1.2-0.3,2.4-0.5,3.6-0.5c1.6,0,3.1,0.2,4.6,0.7c1.1,0.4,2.2,1,3.1,1.7c0.8,0.7,1.4,1.5,1.9,2.4c0.5,0.9,0.8,1.8,1,2.7
			c0.2,0.9,0.3,1.8,0.4,2.7c0,0.9,0.1,1.6,0.1,2.3v19.2h-2.3v-19.6c0-0.8-0.1-1.7-0.2-2.9c-0.1-1.2-0.5-2.3-1.1-3.3
			c-0.6-1.1-1.6-2.1-2.6-2.7c-1.5-0.8-3.2-1.2-4.9-1.1c-1.6,0-3.2,0.3-4.7,1c-1.3,0.6-2.5,1.5-3.5,2.7c-1,1.2-1.7,2.6-2.2,4.1
			c-0.5,1.7-0.8,3.4-0.8,5.2v16.8h-2.3L145.3,127.3z"/>
		<path class="st0" d="M200.9,127.3v29.3c0,1.7-0.2,3.4-0.6,5c-0.4,1.6-1.1,3-2.1,4.3c-1.1,1.3-2.5,2.4-4.1,3
			c-2.1,0.8-4.3,1.2-6.6,1.1c-1.6,0-3.1-0.2-4.6-0.5c-1.4-0.3-2.6-0.9-3.8-1.6c-1.1-0.8-2-1.8-2.6-3c-0.7-1.4-1.1-3-1.1-4.6h2.3
			c0.1,1.2,0.4,2.4,1,3.5c0.5,0.9,1.3,1.8,2.2,2.4c0.9,0.6,1.9,1.1,3,1.4c1.2,0.3,2.4,0.4,3.6,0.4c1.8,0,3.6-0.3,5.3-1
			c1.3-0.6,2.5-1.4,3.4-2.5c0.8-1,1.5-2.2,1.8-3.5c0.3-1.3,0.5-2.7,0.5-4v-7.1h-0.2c-1.9,4.4-6.4,7.2-11.2,7c-2,0-4.1-0.3-5.9-1.2
			c-1.6-0.8-3-1.9-4.1-3.3c-1.1-1.4-2-3.1-2.5-4.9c-0.6-2-0.8-4-0.8-6c0-2,0.3-3.9,0.9-5.8c0.5-1.8,1.4-3.4,2.6-4.9
			c1.1-1.4,2.6-2.5,4.2-3.3c4-1.8,8.7-1.6,12.5,0.6c2,1.2,3.6,3.1,4.4,5.3h0.1v-6.4L200.9,127.3z M187.3,128.6
			c-1.7,0-3.4,0.4-4.9,1.1c-1.4,0.7-2.5,1.8-3.4,3c-0.9,1.3-1.6,2.7-2.1,4.2c-0.5,1.6-0.7,3.2-0.7,4.9c0,1.7,0.2,3.5,0.7,5.1
			c0.4,1.5,1.1,3,2.1,4.2c0.9,1.2,2.1,2.2,3.5,2.9c1.5,0.7,3.1,1.1,4.8,1.1c1.7,0,3.4-0.3,4.9-1.1c1.4-0.7,2.6-1.7,3.5-2.9
			c1-1.3,1.7-2.7,2.1-4.2c0.9-3.3,0.9-6.7,0-10c-0.4-1.5-1.1-3-2.1-4.2c-0.9-1.2-2.2-2.2-3.5-2.9C190.7,128.9,189,128.5,187.3,128.6
			z"/>
		<path class="st0" d="M222.6,121.4v-6.2h2.3v6.2H222.6z M222.6,158.2v-31h2.3v31H222.6z"/>
		<path class="st0" d="M231,127.3h2.3v6.3h0.1c0.2-1,0.7-1.9,1.3-2.8c0.6-0.9,1.3-1.6,2.2-2.2c0.9-0.7,1.9-1.2,2.9-1.5
			c1.1-0.4,2.2-0.5,3.3-0.5c1.3,0,2.6,0.2,3.9,0.6c1,0.3,1.9,0.8,2.8,1.5c0.7,0.6,1.3,1.3,1.8,2.1c0.4,0.7,0.7,1.5,0.9,2.4h0.1
			c0.8-1.9,2-3.6,3.7-4.9c1.8-1.2,4-1.8,6.1-1.7c1.3,0,2.6,0.2,3.9,0.6c1.2,0.4,2.2,1.1,3.1,1.9c0.9,0.9,1.6,2.1,2,3.3
			c0.5,1.5,0.8,3.1,0.7,4.7v21.1h-2.3V137c0.1-1.6-0.2-3.2-0.9-4.6c-0.5-1-1.2-1.9-2.1-2.6c-0.7-0.5-1.6-0.9-2.5-1.1
			c-0.6-0.1-1.3-0.2-1.9-0.2c-1.3,0-2.7,0.2-3.9,0.7c-1.2,0.5-2.2,1.2-3.1,2.2c-0.9,1-1.6,2.3-2,3.6c-0.5,1.6-0.7,3.2-0.7,4.9v18.3
			h-2.3V137c0.1-1.6-0.2-3.2-0.9-4.6c-0.5-1-1.1-1.9-2-2.6c-0.7-0.5-1.5-0.9-2.4-1.1c-0.7-0.1-1.3-0.2-2-0.2c-1.2,0-2.3,0.2-3.4,0.7
			c-1.2,0.4-2.3,1.1-3.2,2c-1,1-1.8,2.2-2.3,3.6c-0.6,1.6-1,3.4-0.9,5.1v18.3H231V127.3z"/>
		<path class="st0" d="M280.5,134.4h0.2c0.3-0.9,0.7-1.7,1.2-2.5c0.6-1,1.4-1.8,2.2-2.6c1-0.8,2.1-1.5,3.3-2c1.4-0.5,3-0.8,4.5-0.8
			c2.1-0.1,4.2,0.4,6.2,1.3c1.7,0.8,3.2,2.1,4.3,3.6c1.2,1.5,2.1,3.3,2.6,5.2c0.6,2,0.8,4.1,0.8,6.2c0,2.2-0.3,4.4-0.8,6.5
			c-0.5,1.9-1.4,3.6-2.6,5.1c-1.2,1.4-2.7,2.6-4.4,3.3c-1.9,0.8-4.1,1.3-6.2,1.2c-2.4,0-4.8-0.5-6.9-1.7c-2.1-1.2-3.7-3.2-4.4-5.5
			h-0.1v17.5h-2.2v-42h2.2L280.5,134.4z M291.9,157c1.8,0,3.6-0.3,5.2-1.1c1.4-0.7,2.7-1.8,3.6-3.1c1-1.3,1.7-2.9,2.1-4.5
			c0.9-3.5,0.9-7.2,0-10.7c-0.4-1.6-1.1-3.2-2-4.6c-0.9-1.3-2.2-2.5-3.6-3.2c-3.3-1.6-7.3-1.6-10.6,0c-1.4,0.8-2.6,1.9-3.5,3.2
			c-0.9,1.4-1.6,2.9-2,4.6c-0.4,1.7-0.6,3.5-0.6,5.3c0,1.8,0.2,3.6,0.5,5.3c0.3,1.6,0.9,3.1,1.8,4.5c0.9,1.3,2.1,2.4,3.5,3.1
			C288.1,156.7,290,157.1,291.9,157z"/>
		<path class="st0" d="M330.5,152.1h-0.1c-0.4,1-0.9,1.8-1.6,2.6c-0.7,0.9-1.6,1.6-2.5,2.2c-1,0.7-2.2,1.2-3.4,1.5
			c-1.3,0.4-2.7,0.6-4.1,0.5c-3.3,0-5.9-0.7-7.6-2.1s-2.7-3.6-2.7-6.6c-0.1-1.5,0.3-3.1,1.1-4.4c0.7-1.1,1.6-2,2.7-2.7
			c1.1-0.7,2.4-1.1,3.7-1.4c1.3-0.3,2.6-0.5,3.9-0.6l3.6-0.3c1.3-0.1,2.6-0.3,3.9-0.6c0.8-0.2,1.5-0.6,2.1-1.1
			c0.5-0.5,0.8-1.1,0.9-1.8c0.1-0.9,0.2-1.8,0.2-2.7c0-0.8-0.2-1.6-0.5-2.4c-0.3-0.8-0.9-1.4-1.5-1.9c-0.8-0.6-1.7-1.1-2.6-1.3
			c-1.3-0.3-2.7-0.5-4-0.5c-2.4-0.1-4.8,0.6-6.7,2c-1.8,1.6-2.8,3.8-2.8,6.2h-2.3c0.2-3.4,1.3-6,3.3-7.7c2-1.7,4.9-2.6,8.6-2.6
			s6.5,0.7,8.2,2.2c1.7,1.4,2.6,3.5,2.6,5.8v18c0,0.4,0,0.9,0,1.3c0,0.4,0.1,0.8,0.2,1.2c0.1,0.3,0.3,0.7,0.6,0.9
			c0.4,0.2,0.8,0.4,1.2,0.3c0.6,0,1.1-0.1,1.7-0.2v2c-0.6,0.2-1.2,0.3-1.9,0.2c-0.8,0-1.5-0.1-2.2-0.4c-0.5-0.2-0.9-0.6-1.2-1
			c-0.3-0.4-0.5-0.9-0.6-1.4c-0.1-0.6-0.2-1.2-0.2-1.8L330.5,152.1z M330.5,140.7c-0.7,0.7-1.6,1.2-2.5,1.3
			c-1.3,0.3-2.5,0.4-3.8,0.5l-3.9,0.4c-1.1,0.1-2.2,0.3-3.4,0.5c-1.1,0.2-2.1,0.6-3,1.1c-0.9,0.5-1.7,1.3-2.2,2.1
			c-0.6,1.1-0.9,2.3-0.8,3.5c-0.2,1.9,0.7,3.8,2.2,5.1c1.8,1.2,3.9,1.8,6,1.7c2.2,0.1,4.3-0.4,6.2-1.4c1.4-0.8,2.6-1.9,3.5-3.3
			c0.7-1.1,1.3-2.3,1.5-3.6c0.2-0.8,0.3-1.5,0.3-2.3L330.5,140.7z"/>
		<path class="st0" d="M362.2,136.9c-0.1-1.3-0.4-2.5-1-3.6c-0.6-1-1.3-1.9-2.3-2.6c-1-0.7-2.1-1.2-3.2-1.6c-1.3-0.4-2.6-0.5-4-0.5
			c-1.8,0-3.5,0.4-5.1,1.2c-1.5,0.8-2.7,1.8-3.7,3.1c-1,1.3-1.8,2.9-2.3,4.5c-0.5,1.7-0.8,3.4-0.8,5.1c0,2,0.2,3.9,0.7,5.8
			c0.4,1.7,1.2,3.2,2.2,4.6c1,1.3,2.3,2.3,3.7,3.1c1.6,0.8,3.4,1.1,5.2,1.1c1.4,0,2.7-0.2,4-0.7c1.2-0.5,2.3-1.1,3.2-2
			c1-0.8,1.7-1.9,2.3-3c0.6-1.2,1-2.5,1.2-3.9h2.3c-0.2,1.7-0.7,3.4-1.5,4.9c-0.7,1.4-1.7,2.6-2.9,3.6c-1.2,1-2.5,1.8-4,2.3
			c-3.7,1.2-7.7,1-11.2-0.6c-1.7-0.9-3.2-2.1-4.4-3.6c-1.2-1.6-2-3.4-2.5-5.3c-0.6-2-0.8-4.1-0.8-6.2c0-2.1,0.3-4.2,0.9-6.1
			c0.6-1.8,1.5-3.6,2.7-5.1c1.2-1.5,2.7-2.6,4.5-3.4c1.9-0.9,4-1.3,6.1-1.3c1.6,0,3.2,0.2,4.7,0.6c1.4,0.4,2.7,1,3.9,1.9
			c1.2,0.9,2.1,2,2.8,3.2c0.8,1.4,1.2,3,1.3,4.6L362.2,136.9z"/>
		<path class="st0" d="M380.4,129.3h-6.8v21.6c0,1,0.1,2,0.4,2.9c0.2,0.7,0.7,1.3,1.3,1.7c0.6,0.4,1.4,0.6,2.1,0.7
			c1,0.1,1.9,0.1,2.9,0.1v2c-1.1,0.1-2.3,0.1-3.4,0c-1-0.1-2-0.4-2.9-0.9c-0.9-0.5-1.6-1.3-2-2.3c-0.6-1.3-0.8-2.7-0.6-4.1v-21.7
			h-5.7v-2h5.7v-9.6h2.3v9.6h6.8L380.4,129.3z"/>
		<path class="st0" d="M386.8,152h3.1v6.2c0,0.8-0.1,1.6-0.2,2.4c-0.1,0.8-0.3,1.5-0.6,2.2c-0.3,0.7-0.7,1.3-1.2,1.8
			c-0.5,0.5-1.1,0.9-1.8,1.2v-2c0.5-0.2,0.8-0.6,1-1c0.3-0.5,0.5-1,0.6-1.5c0.2-0.5,0.3-1.1,0.3-1.7c0-0.6,0.1-1,0.1-1.4h-1.3V152z"
			/>
		<path class="st0" d="M425.8,129.3h-6.8v21.6c0,1,0.1,2,0.4,2.9c0.3,0.7,0.7,1.3,1.3,1.7c0.6,0.4,1.4,0.6,2.1,0.7
			c1,0.1,1.9,0.1,2.9,0.1v2c-1.1,0.1-2.3,0.1-3.4,0c-1-0.1-2-0.4-2.9-0.9c-0.9-0.5-1.6-1.3-2-2.3c-0.6-1.3-0.8-2.7-0.6-4.1v-21.7
			h-5.7v-2h5.7v-9.6h2.3v9.6h6.8L425.8,129.3z"/>
		<path class="st0" d="M426.6,142.8c0-2.1,0.3-4.2,0.9-6.2c0.6-1.9,1.5-3.6,2.7-5.1c1.2-1.5,2.7-2.7,4.5-3.5c3.9-1.7,8.3-1.7,12.2,0
			c1.7,0.8,3.2,2,4.5,3.5c1.2,1.5,2.2,3.3,2.8,5.1c0.6,2,0.9,4.1,0.9,6.2c0,2.1-0.3,4.2-0.9,6.3c-0.6,1.9-1.5,3.6-2.8,5.1
			c-1.2,1.5-2.7,2.7-4.5,3.5c-3.9,1.7-8.3,1.7-12.2,0c-1.7-0.8-3.2-2-4.5-3.5c-1.2-1.5-2.2-3.3-2.7-5.2
			C426.9,147,426.5,144.9,426.6,142.8z M428.9,142.8c0,1.8,0.3,3.6,0.8,5.3c0.5,1.6,1.3,3.2,2.3,4.5c1,1.3,2.3,2.4,3.7,3.2
			c3.2,1.6,7,1.6,10.2,0c1.5-0.8,2.7-1.9,3.7-3.2c1-1.4,1.8-2.9,2.3-4.5c1-3.5,1-7.2,0-10.7c-0.5-1.6-1.3-3.2-2.3-4.6
			c-1-1.3-2.3-2.4-3.7-3.2c-3.2-1.6-7-1.6-10.2,0c-1.5,0.8-2.7,1.8-3.7,3.2c-1,1.4-1.8,2.9-2.3,4.6
			C429.1,139.2,428.8,141,428.9,142.8z"/>
		<path class="st0" d="M484.7,127.3v29.3c0,1.7-0.2,3.4-0.6,5c-0.4,1.6-1.1,3.1-2.1,4.4c-1.1,1.3-2.4,2.3-4,3
			c-2.1,0.8-4.3,1.2-6.5,1.1c-1.6,0-3.1-0.2-4.6-0.5c-1.4-0.3-2.6-0.9-3.8-1.6c-1.1-0.8-2-1.8-2.6-3c-0.7-1.4-1.1-3-1.1-4.6h2.3
			c0.1,1.2,0.4,2.4,1,3.5c0.5,0.9,1.3,1.8,2.2,2.4c0.9,0.6,1.9,1.1,3,1.4c1.2,0.3,2.4,0.4,3.6,0.4c1.8,0,3.6-0.3,5.3-1
			c1.3-0.6,2.5-1.4,3.4-2.5c0.8-1,1.5-2.2,1.8-3.5c0.3-1.3,0.5-2.7,0.5-4V150h-0.2c-1.9,4.4-6.4,7.2-11.2,7c-2,0-4.1-0.3-5.9-1.2
			c-1.6-0.8-3-1.9-4.1-3.3c-1.1-1.4-2-3.1-2.5-4.9c-0.6-2-0.8-4-0.8-6c0-2,0.3-3.9,0.9-5.8c0.5-1.8,1.4-3.4,2.6-4.9
			c1.1-1.4,2.6-2.5,4.2-3.3c4-1.8,8.7-1.6,12.5,0.6c2,1.2,3.6,3.1,4.4,5.3h0.1v-6.4L484.7,127.3z M471.1,128.6
			c-1.7,0-3.4,0.4-4.9,1.1c-1.4,0.7-2.5,1.8-3.4,3c-0.9,1.3-1.6,2.7-2,4.2c-0.5,1.6-0.7,3.2-0.7,4.9c0,1.7,0.2,3.5,0.7,5.1
			c0.4,1.5,1.1,3,2.1,4.2c0.9,1.2,2.1,2.2,3.5,2.9c1.5,0.7,3.1,1.1,4.8,1.1c1.7,0,3.4-0.3,4.9-1.1c1.4-0.7,2.6-1.7,3.5-2.9
			c1-1.3,1.7-2.7,2.1-4.2c0.9-3.3,0.9-6.7,0-10c-0.4-1.5-1.1-3-2.1-4.2c-0.9-1.2-2.2-2.2-3.5-2.9
			C474.5,128.9,472.9,128.5,471.1,128.6z"/>
		<path class="st0" d="M491.1,143.1v0.4c0,1.8,0.2,3.5,0.7,5.2c0.4,1.6,1.2,3.1,2.1,4.4c0.9,1.3,2.2,2.3,3.6,3
			c1.6,0.8,3.3,1.1,5,1.1c2.7,0.1,5.3-0.7,7.4-2.4c1.9-1.8,3.2-4.2,3.8-6.8h2.3c-0.5,3.2-2,6.1-4.4,8.3c-4.4,3.1-10.1,3.8-15,1.6
			c-1.7-0.8-3.1-1.9-4.3-3.4c-1.2-1.5-2.1-3.2-2.6-5.1c-0.6-2.1-0.9-4.2-0.8-6.3c0-2.1,0.3-4.2,0.9-6.2c0.5-1.9,1.4-3.7,2.6-5.2
			c1.2-1.5,2.7-2.7,4.4-3.6c3.8-1.7,8.1-1.8,11.9-0.2c1.6,0.8,3,1.9,4.2,3.3c1.2,1.4,2,3.1,2.6,4.8c0.6,1.9,0.9,3.9,0.9,5.9
			c0,0.2,0,0.4,0,0.7s0,0.5,0,0.6L491.1,143.1z M513.9,141.1c-0.1-1.6-0.4-3.2-0.8-4.8c-0.5-1.5-1.2-2.8-2.1-4
			c-0.9-1.1-2.1-2.1-3.4-2.7c-1.4-0.7-3-1-4.6-1c-1.7-0.1-3.4,0.3-4.9,1c-1.4,0.7-2.6,1.6-3.6,2.8c-1,1.2-1.7,2.5-2.2,4
			c-0.5,1.5-0.9,3.1-1,4.7L513.9,141.1z"/>
		<path class="st0" d="M531.8,129.3H525v21.6c0,1,0.1,2,0.4,2.9c0.3,0.7,0.7,1.3,1.3,1.7c0.6,0.4,1.4,0.6,2.1,0.7
			c1,0.1,1.9,0.1,2.9,0.1v2c-1.1,0.1-2.3,0.1-3.4,0c-1-0.1-2-0.4-2.9-0.9c-0.9-0.5-1.6-1.3-2-2.3c-0.6-1.3-0.8-2.7-0.6-4.1v-21.7
			H517v-2h5.7v-9.6h2.3v9.6h6.8V129.3z"/>
		<path class="st0" d="M537,115.2v18.7h0.1c0.4-1.1,1-2.2,1.7-3.1c0.7-0.9,1.6-1.7,2.6-2.3c1-0.7,2.1-1.2,3.2-1.5
			c1.2-0.3,2.4-0.5,3.6-0.5c1.6,0,3.1,0.2,4.6,0.7c1.2,0.4,2.2,1,3.1,1.8c0.8,0.7,1.4,1.5,1.9,2.4c0.5,0.9,0.8,1.8,1,2.7
			c0.2,0.9,0.3,1.8,0.4,2.7c0,0.9,0.1,1.6,0.1,2.3v19.2H557v-19.6c0-0.8-0.1-1.7-0.2-2.9c-0.1-1.2-0.4-2.3-1-3.3
			c-0.6-1.1-1.6-2.1-2.7-2.7c-1.5-0.8-3.2-1.2-4.9-1.1c-1.6,0-3.2,0.3-4.7,1c-1.3,0.6-2.5,1.5-3.5,2.7c-1,1.2-1.7,2.6-2.2,4.1
			c-0.5,1.7-0.8,3.4-0.8,5.2v16.8h-2.3v-43L537,115.2z"/>
		<path class="st0" d="M565.7,143.1v0.4c0,1.8,0.2,3.5,0.7,5.2c0.4,1.6,1.2,3,2.2,4.3c0.9,1.3,2.2,2.3,3.6,3c1.6,0.8,3.3,1.1,5,1.1
			c2.7,0.1,5.3-0.7,7.4-2.4c1.9-1.8,3.2-4.2,3.8-6.8h2.3c-0.5,3.2-2,6.2-4.4,8.3c-4.4,3.1-10.1,3.8-15,1.6c-1.7-0.8-3.1-1.9-4.3-3.4
			c-1.2-1.5-2.1-3.2-2.6-5.1c-0.6-2.1-0.9-4.2-0.8-6.3c0-2.1,0.3-4.2,0.9-6.2c0.5-1.9,1.4-3.7,2.6-5.2c1.2-1.5,2.7-2.7,4.4-3.6
			c1.9-0.9,4-1.4,6.2-1.3c2,0,3.9,0.4,5.8,1.2c1.6,0.8,3.1,1.9,4.2,3.3c1.1,1.4,2,3.1,2.6,4.8c0.6,1.9,0.9,3.9,0.9,5.9
			c0,0.2,0,0.4,0,0.7c0,0.3,0,0.5,0,0.6L565.7,143.1z M588.4,141.1c-0.1-1.6-0.4-3.2-0.8-4.8c-0.5-1.5-1.2-2.8-2.2-4
			c-0.9-1.1-2.1-2.1-3.4-2.7c-1.4-0.7-3-1-4.6-1c-1.7-0.1-3.4,0.3-4.9,1c-1.4,0.7-2.6,1.6-3.6,2.8c-1,1.2-1.7,2.5-2.2,4
			c-0.5,1.5-0.9,3.1-1,4.7L588.4,141.1z"/>
		<path class="st0" d="M597.2,134.1h0.2c0.3-1,0.8-2,1.5-2.8c0.8-0.9,1.7-1.7,2.7-2.3c1.1-0.7,2.3-1.2,3.6-1.5
			c1.3-0.3,2.7-0.5,4.1-0.4v2.3c-1.4-0.1-2.8,0-4.1,0.4c-1.7,0.5-3.2,1.4-4.4,2.6c-0.5,0.6-1,1.1-1.5,1.8c-0.4,0.6-0.8,1.2-1.1,1.9
			c-0.3,0.7-0.5,1.5-0.7,2.3c-0.2,1-0.3,2-0.3,3v16.9h-2.3v-31h2.3L597.2,134.1z"/>
	</g>
</g>
</svg>
